<?xml version="1.0" encoding="UTF-8" standalone="no"?>
<!DOCTYPE svg PUBLIC "-//W3C//DTD SVG 1.1//EN" "http://www.w3.org/Graphics/SVG/1.1/DTD/svg11.dtd">
<!-- Created with Vectornator (http://vectornator.io/) -->
<svg height="100%" stroke-miterlimit="10" style="fill-rule:nonzero;clip-rule:evenodd;stroke-linecap:round;stroke-linejoin:round;" version="1.1" viewBox="0 0 354 500" width="100%" xml:space="preserve" xmlns="http://www.w3.org/2000/svg" xmlns:vectornator="http://vectornator.io" xmlns:xlink="http://www.w3.org/1999/xlink">
<defs/>
<g id="Oval" vectornator:layerName="Oval"/>
<g id="Line1" vectornator:layerName="Line1"/>
<g id="Line2" vectornator:layerName="Line2">
<g opacity="1" vectornator:layerName="成组 1">
<path d="M85.0364 229.834C85.0364 156.151 126.21 96.4197 177 96.4197C227.79 96.4197 268.964 156.151 268.964 229.834C268.964 303.517 227.79 363.249 177 363.249C126.21 363.249 85.0364 303.517 85.0364 229.834Z" fill="none" opacity="1" stroke="#000000" stroke-linecap="butt" stroke-linejoin="round" stroke-width="1" vectornator:layerName="椭圆 1"/>
<path d="M81.566 229.834C81.566 153.892 124.293 92.3295 177 92.3295C229.707 92.3295 272.434 153.892 272.434 229.834C272.434 305.776 229.707 367.339 177 367.339C124.293 367.339 81.566 305.776 81.566 229.834Z" fill="none" opacity="1" stroke="#000000" stroke-linecap="butt" stroke-linejoin="round" stroke-width="2" vectornator:layerName="椭圆 2"/>
</g>
<g opacity="1" vectornator:layerName="成组 1">
<g opacity="1" vectornator:layerName="成组 2">
<path d="M83.3038 128.927C83.3038 128.927 69.517 145.945 77.3056 168.758C77.3056 168.758 70.995 164.547 70.0238 155.897C69.4522 150.806 63.495 140.743 56.2948 141.909C46.8805 143.435 39.8617 162.787 45.9919 166.123C49.0102 167.766 50.1261 163.945 54.0957 164.471C62.3293 165.562 72.1578 195.323 55.4549 203.839C49.7224 206.761 46.0777 197.658 41.6161 200.093C36.4906 202.89 37.0574 217.795 50.496 249.033C64.7305 282.12 67.5956 296.364 69.0658 302.428C69.0658 302.428 76.621 294.738 85.115 302.146C97.9239 313.317 90.5966 336.322 85.1961 351.007C81.7273 360.439 66.6549 392.981 64.3614 400.429C62.0898 407.806 60.7128 420.556 65.9783 425.052C76.7425 434.242 91.4688 426.578 98.0102 421.907C145.801 387.784 155.976 373.763 163.292 373.811C170.156 373.855 172.171 389.826 181.831 398.319C185.119 401.208 187.807 399.069 187.681 395.786C187.681 395.786 196.511 407.535 186.134 426.444C183.834 430.635 179.681 435.332 176.167 438.672C170.356 444.194 163.159 448.469 159.631 451.201C156.291 453.788 152.881 458.368 153.677 460.929C154.569 463.799 159.293 461.497 163.462 464.091C167.631 466.685 166.666 437.442 159.225 436.091C152.749 434.916 160.335 440.022 154.482 443.515C148.628 447.009 133.056 441.301 134.34 425.466C135.624 409.63 154.287 406.932 145.153 386.841C131.748 357.357 62.9248 358.912 43.5191 385.625C24.1836 412.241 18.9936 381.442 22.6539 371.241C28.2998 355.506 44.0934 341.13 47.855 328.052C50.0457 320.435 47.1842 306.286 40.5736 309.224C40.5736 309.224 47.2763 301.03 52.5346 310.578C56.1466 317.137 51.2154 333.904 66.8451 332.9C76.1612 332.301 83.1494 308.156 75.9509 288.471C72.6094 279.333 66.5192 258.358 55.5547 235.756C38.7372 201.09 30.9486 179.921 28.872 166.218C24.1655 135.159 43.3319 96.0289 74.908 95.1327C94.9239 94.5646 79.7169 105.466 85.4082 112.424C91.5024 119.874 122.806 95.8774 132.535 75.5017C136.446 67.3112 138.154 55.4878 132.139 53.368C127.097 51.5911 109.042 66.8484 106.403 55.9451C104.23 46.9663 119.619 35.9376 134.74 37.0001C149.189 38.0154 165.682 46.7117 178.008 59.6314C193.032 75.3798 208.717 78.9961 222.382 79.2027C232.333 79.3531 241.082 77.3682 247.405 76.1377C254.602 74.7371 276.584 64.0277 291.259 68.594C291.259 68.594 285.52 60.5755 265.396 65.2727C249.783 68.9171 211.157 85.6127 193.868 55.9634C182.437 36.3599 195.134 27.7631 197.748 28.072C200.396 28.385 202.283 31.9073 197.781 34.8158C197.781 34.8158 197.388 31.686 195.057 32.0174C190.773 32.6266 185.039 50.1941 203.953 62.7248C222.867 75.2555 253.863 63.1128 266.885 62.0276C279.907 60.9425 302.888 61.5677 310.742 84.1715C321.336 114.659 299.284 150.479 292.886 161.383C281.261 181.194 274.512 208.877 290.014 211.286C294.143 211.928 295.113 205.224 295.113 205.224C295.113 205.224 299.029 210.714 298.056 216.104C297.585 218.717 295.73 222.126 292.17 223.307C281.157 226.961 274.104 209.786 276.952 196.954C279.352 186.139 279.922 183.203 284.305 173.435C286.228 169.15 317.645 121.35 311.025 92.4044C308.944 83.3022 301.425 72.0529 290.422 70.3042C281.467 68.8807 278.092 69.29 247.516 79.1414C240.691 81.3404 223.212 83.9684 214.772 83.0983C194.243 80.982 182.062 67.5414 176.751 61.1354C166.111 48.3032 147.478 39.3301 132.815 39.8718C119.635 40.3588 110.318 47.4875 115.079 52.5431C117.955 55.596 126.98 50.21 133.649 50.9721C140.317 51.7342 140.905 65.9571 134.897 77.0411C127.36 90.9442 109.621 112.925 93.9205 117.781C88.5766 119.434 83.7772 123.446 80.29 124.676C72.1067 127.563 67.8928 129.495 65.6336 133.69C65.6336 133.69 65.6599 126.101 72.0871 119.477C76.6675 114.756 75.8974 107.966 70.0398 105.964C63.9787 103.893 49.4346 110.688 40.5458 123.275C33.8923 132.698 29.8262 146.837 32.1478 167.306C34.5824 188.771 55.5539 226.832 58.0169 234.221C60.48 241.61 100.699 319.472 73.3399 338.806C58.2519 349.468 53.014 330.799 51.8052 325.024C51.8052 325.024 45.5712 344.012 38.9313 349.998C33.4003 354.984 25.8974 376.295 35.4388 381.969C41.7995 385.752 47.0758 379.343 55.0286 373.508C67.5276 364.338 119.192 350.751 145.206 381.021C161.693 400.205 156.976 409.774 151.836 417.928C146.695 426.082 141.585 439.512 153.108 440.475C157.787 440.867 151.721 430.982 157.721 429.42C166.194 427.215 171.112 461.611 165.953 465.164C165.487 465.485 166.042 466.296 156.968 465.444C150.028 464.792 138.604 475.785 136.029 470.489C132.896 464.046 159.137 447.593 168.296 443.014C177.454 438.435 196.055 414.789 177.56 397.01C175.312 394.849 173.226 391.303 172.316 389.486C169.936 384.734 167.354 379.97 161.605 379.535C151.486 378.769 156.077 384.877 97.7513 424.515C80.2129 436.434 66.6903 443.243 56.6747 432.071C49.0259 423.538 55.3009 405.144 59.8345 396.764C64.368 388.384 78.7887 360.344 82.7769 350.879C88.4492 337.418 94.0353 303.218 78.3392 304.455C74.0024 304.797 72.492 309.613 73.7625 311.26C74.6807 312.451 75.8645 312.939 78.0098 312.984C78.0098 312.984 72.1666 316.847 69.3972 314.685C66.6277 312.523 66.5937 309.066 66.9319 304.338C67.1999 300.591 50.3786 255.667 48.6585 250.392C46.9385 245.117 22.8266 193.491 45.938 192.789C54.0636 192.542 51.65 198.945 56.9203 197.827C62.1906 196.709 64.1603 175.798 56.903 170.093C53.6275 167.518 48.2619 181.283 42.0504 168.177C35.0777 153.464 48.6922 140.751 55.6468 139.232C62.3831 137.761 63.7704 139.27 69.8392 137.034C75.908 134.798 79.4274 130.254 83.3038 128.927Z" fill="#000000" fill-rule="nonzero" opacity="1" stroke="#000000" stroke-linecap="butt" stroke-linejoin="round" stroke-width="1" vectornator:layerName="曲线 2"/>
<path d="M122.893 383.963C122.893 383.963 124.386 381.292 122.243 380.797C119.517 380.169 110.982 384.404 103.044 392.709C96.7829 399.26 88.8366 408.073 82.6706 404.781C77.7032 402.129 85.8964 390.652 93.1539 385.302C98.9347 381.041 118.875 365.595 116.33 358.267C114.111 351.878 102.631 352.16 91.3128 353.647C82.8976 354.753 62.4719 360.087 54.0459 366.413C46.031 372.43 40.735 372.975 39.301 370.556C36.3329 365.547 42.2678 360.017 45.5681 355.758C49.4202 350.787 63.6425 328.407 54.3098 297.675C48.7911 279.502 35.9917 254.42 28.6658 230.344C25.0724 218.535 22.7959 204.303 23.3416 196.429C24.3879 181.331 34.2604 172.826 42.3143 174.187C48.7348 175.271 54.1756 183.713 47.8479 187.354C47.8479 187.354 48.2628 184.878 47.0227 183.129C45.9406 181.603 44.2706 181.253 42.5849 181.154C38.478 180.912 24.4148 185.601 25.7606 200.853C26.1584 205.362 27.5986 218.706 31.1588 229.788C39.6419 256.194 54.691 289.154 56.9029 299.029C60.0432 313.048 63.7674 327.908 50.3331 351.266C47.1517 356.798 45.6164 361.545 48.6264 363.15C51.6364 364.756 56.972 361.039 56.972 361.039C56.972 361.039 72.4234 355.13 85.9851 352.66C97.6352 350.539 111.964 350.703 115.647 352.904C122.033 356.721 121.486 360.939 116.771 366.859C112.055 372.778 90.5708 389.546 94.2959 393.547C97.1654 396.63 101.517 389.696 107.31 385.431C114.031 380.482 122.772 377.112 124.335 379.532C125.457 381.269 124.261 383.168 122.893 383.963Z" fill="#000000" fill-rule="nonzero" opacity="1" stroke="#000000" stroke-linecap="butt" stroke-linejoin="round" stroke-width="1" vectornator:layerName="曲线 3"/>
</g>
<g opacity="1" vectornator:layerName="成组 1">
<path d="M270.696 128.927C270.696 128.927 284.483 145.945 276.694 168.758C276.694 168.758 283.005 164.547 283.976 155.897C284.548 150.806 290.505 140.743 297.705 141.909C307.12 143.435 314.138 162.787 308.008 166.123C304.99 167.766 303.874 163.945 299.904 164.471C291.671 165.562 281.842 195.323 298.545 203.839C304.278 206.761 307.922 197.658 312.384 200.093C317.509 202.89 316.943 217.795 303.504 249.033C289.269 282.12 286.404 296.364 284.934 302.428C284.934 302.428 277.379 294.738 268.885 302.146C256.076 313.317 263.403 336.322 268.804 351.007C272.273 360.439 287.345 392.981 289.639 400.429C291.91 407.806 293.287 420.556 288.022 425.052C277.258 434.242 262.531 426.578 255.99 421.907C208.199 387.784 198.024 373.763 190.708 373.811C183.844 373.855 181.829 389.826 172.169 398.319C168.881 401.208 166.193 399.069 166.319 395.786C166.319 395.786 157.489 407.535 167.866 426.444C170.166 430.635 174.319 435.332 177.833 438.672C183.644 444.194 190.841 448.469 194.369 451.201C197.709 453.788 201.119 458.368 200.323 460.929C199.431 463.799 194.707 461.497 190.538 464.091C186.369 466.685 187.334 437.442 194.775 436.091C201.251 434.916 193.665 440.022 199.518 443.515C205.372 447.009 220.944 441.301 219.66 425.466C218.376 409.63 199.713 406.932 208.847 386.841C222.252 357.357 291.075 358.912 310.481 385.625C329.816 412.241 335.006 381.442 331.346 371.241C325.7 355.506 309.907 341.13 306.145 328.052C303.954 320.435 306.816 306.286 313.426 309.224C313.426 309.224 306.724 301.03 301.465 310.578C297.853 317.137 302.785 333.904 287.155 332.9C277.839 332.301 270.851 308.156 278.049 288.471C281.391 279.333 287.481 258.358 298.445 235.756C315.263 201.09 323.051 179.921 325.128 166.218C329.835 135.159 310.668 96.0289 279.092 95.1327C259.076 94.5646 274.283 105.466 268.592 112.424C262.498 119.874 231.194 95.8774 221.465 75.5017C217.554 67.3112 215.846 55.4878 221.861 53.368C226.903 51.5911 244.958 66.8484 247.597 55.9451C249.77 46.9663 234.381 35.9376 219.26 37.0001C204.811 38.0154 188.318 46.7117 175.992 59.6314C160.968 75.3798 145.283 78.9961 131.618 79.2027C121.667 79.3531 112.918 77.3682 106.595 76.1377C99.3977 74.7371 77.4158 64.0277 62.7412 68.594C62.7412 68.594 68.4797 60.5755 88.6036 65.2727C104.217 68.9171 142.843 85.6127 160.132 55.9634C171.563 36.3599 158.866 27.7631 156.252 28.072C153.604 28.385 151.717 31.9073 156.219 34.8158C156.219 34.8158 156.612 31.686 158.943 32.0174C163.227 32.6266 168.961 50.1941 150.047 62.7248C131.133 75.2555 100.137 63.1128 87.115 62.0276C74.0932 60.9425 51.112 61.5677 43.2578 84.1715C32.6642 114.659 54.716 150.479 61.1142 161.383C72.7388 181.194 79.4881 208.877 63.9858 211.286C59.8574 211.928 58.8869 205.224 58.8869 205.224C58.8869 205.224 54.9715 210.714 55.9439 216.104C56.4154 218.717 58.2701 222.126 61.83 223.307C72.8435 226.961 79.896 209.786 77.0484 196.954C74.6482 186.139 74.0776 183.203 69.6948 173.435C67.7716 169.15 36.3549 121.35 42.9746 92.4044C45.0562 83.3022 52.5753 72.0529 63.5775 70.3042C72.5334 68.8807 75.9085 69.29 106.484 79.1414C113.309 81.3404 130.788 83.9684 139.228 83.0983C159.757 80.982 171.938 67.5414 177.249 61.1354C187.889 48.3032 206.522 39.3301 221.185 39.8718C234.365 40.3588 243.682 47.4875 238.921 52.5431C236.045 55.596 227.02 50.21 220.351 50.9721C213.683 51.7342 213.095 65.9571 219.103 77.0411C226.64 90.9442 244.379 112.925 260.08 117.781C265.423 119.434 270.223 123.446 273.71 124.676C281.893 127.563 286.107 129.495 288.366 133.69C288.366 133.69 288.34 126.101 281.913 119.477C277.333 114.756 278.103 107.966 283.96 105.964C290.021 103.893 304.565 110.688 313.454 123.275C320.108 132.698 324.174 146.837 321.852 167.306C319.418 188.771 298.446 226.832 295.983 234.221C293.52 241.61 253.301 319.472 280.66 338.806C295.748 349.468 300.986 330.799 302.195 325.024C302.195 325.024 308.429 344.012 315.069 349.998C320.6 354.984 328.103 376.295 318.561 381.969C312.2 385.752 306.924 379.343 298.971 373.508C286.472 364.338 234.808 350.751 208.794 381.021C192.307 400.205 197.024 409.774 202.164 417.928C207.305 426.082 212.415 439.512 200.892 440.475C196.213 440.867 202.279 430.982 196.279 429.42C187.806 427.215 182.888 461.611 188.047 465.164C188.513 465.485 187.958 466.296 197.032 465.444C203.972 464.792 215.396 475.785 217.971 470.489C221.104 464.046 194.863 447.593 185.704 443.014C176.546 438.435 157.945 414.789 176.44 397.01C178.688 394.849 180.774 391.303 181.684 389.486C184.064 384.734 186.646 379.97 192.395 379.535C202.514 378.769 197.923 384.877 256.249 424.515C273.787 436.434 287.31 443.243 297.325 432.071C304.974 423.538 298.699 405.144 294.166 396.764C289.632 388.384 275.211 360.344 271.223 350.879C265.551 337.418 259.965 303.218 275.661 304.455C279.998 304.797 281.508 309.613 280.238 311.26C279.319 312.451 278.135 312.939 275.99 312.984C275.99 312.984 281.833 316.847 284.603 314.685C287.372 312.523 287.406 309.066 287.068 304.338C286.8 300.591 303.621 255.667 305.341 250.392C307.062 245.117 331.173 193.491 308.062 192.789C299.936 192.542 302.35 198.945 297.08 197.827C291.809 196.709 289.84 175.798 297.097 170.093C300.373 167.518 305.738 181.283 311.95 168.177C318.922 153.464 305.308 140.751 298.353 139.232C291.617 137.761 290.23 139.27 284.161 137.034C278.092 134.798 274.573 130.254 270.696 128.927Z" fill="#000000" fill-rule="nonzero" opacity="1" stroke="#000000" stroke-linecap="butt" stroke-linejoin="round" stroke-width="1" vectornator:layerName="曲线 2"/>
<path d="M231.107 383.963C231.107 383.963 229.614 381.292 231.757 380.797C234.483 380.169 243.018 384.404 250.956 392.709C257.217 399.26 265.163 408.073 271.329 404.781C276.297 402.129 268.104 390.652 260.846 385.302C255.065 381.041 235.125 365.595 237.67 358.267C239.889 351.878 251.369 352.16 262.687 353.647C271.102 354.753 291.528 360.087 299.954 366.413C307.969 372.43 313.265 372.975 314.699 370.556C317.667 365.547 311.732 360.017 308.432 355.758C304.58 350.787 290.357 328.407 299.69 297.675C305.209 279.502 318.008 254.42 325.334 230.344C328.928 218.535 331.204 204.303 330.658 196.429C329.612 181.331 319.74 172.826 311.686 174.187C305.265 175.271 299.824 183.713 306.152 187.354C306.152 187.354 305.737 184.878 306.977 183.129C308.059 181.603 309.729 181.253 311.415 181.154C315.522 180.912 329.585 185.601 328.239 200.853C327.842 205.362 326.401 218.706 322.841 229.788C314.358 256.194 299.309 289.154 297.097 299.029C293.957 313.048 290.233 327.908 303.667 351.266C306.848 356.798 308.384 361.545 305.374 363.15C302.364 364.756 297.028 361.039 297.028 361.039C297.028 361.039 281.577 355.13 268.015 352.66C256.365 350.539 242.036 350.703 238.353 352.904C231.967 356.721 232.514 360.939 237.229 366.859C241.945 372.778 263.429 389.546 259.704 393.547C256.835 396.63 252.483 389.696 246.69 385.431C239.969 380.482 231.228 377.112 229.665 379.532C228.543 381.269 229.739 383.168 231.107 383.963Z" fill="#000000" fill-rule="nonzero" opacity="1" stroke="#000000" stroke-linecap="butt" stroke-linejoin="round" stroke-width="1" vectornator:layerName="曲线 3"/>
</g>
</g>
</g>
</svg>
