<?xml version="1.0" encoding="UTF-8" standalone="no"?>
<!DOCTYPE svg PUBLIC "-//W3C//DTD SVG 1.1//EN" "http://www.w3.org/Graphics/SVG/1.1/DTD/svg11.dtd">
<!-- Created with Vectornator (http://vectornator.io/) -->
<svg height="100%" stroke-miterlimit="10" style="fill-rule:nonzero;clip-rule:evenodd;stroke-linecap:round;stroke-linejoin:round;" version="1.1" viewBox="0 0 354 500" width="100%" xml:space="preserve" xmlns="http://www.w3.org/2000/svg" xmlns:vectornator="http://vectornator.io" xmlns:xlink="http://www.w3.org/1999/xlink">
<defs/>
<g id="luminance" vectornator:layerName="luminance">
<g opacity="1" vectornator:layerName="成组 2">
<path d="M181.155 87.8157C181.155 87.8157 187.556 98.3242 194.064 94.4945C200.934 90.4518 191.886 80.175 194.848 76.1488C197.534 72.4996 225.688 79.677 237.219 127.763C250.034 181.202 272.331 154.469 265.565 126.642C257.008 91.4536 219.768 68.5457 230.38 60.0017C240.991 51.4576 286.329 50.6308 282.333 65.9274C278.336 81.224 275.248 83.4343 275.744 96.8214C276.24 110.209 274.104 388.84 276.354 402.4C280.748 428.878 307.071 436.704 293.514 441.12C286.112 443.532 268.249 435.751 248.668 435.184C235.373 434.8 222.691 438.911 212.801 438.952C197.378 439.016 215.128 427.039 216.245 419.907C217.81 409.908 189.399 398.757 183.348 405.965C176.759 413.815 183.993 418.924 182.929 420.631C181.748 422.525 179.124 420.994 179.072 422.632C179.026 424.092 184.146 425.396 186.826 422.243C190.839 417.523 188.517 409.761 201.051 410.885C207.843 411.495 219.472 417.005 203.096 427.722C178.705 443.684 193.062 456.7 218.821 446.569C241.585 437.617 278.943 440.152 293.417 448.376C299.087 451.598 312.442 454.058 317.168 449.812C321.982 445.487 316.53 428.908 302.171 418.553C290.782 410.34 281.766 401.38 280.739 392.417C279.511 381.699 275.828 104.828 280.835 89.9826C284.543 78.9863 302.557 75.176 307.959 69.0335C311.3 65.2355 304.344 54.8821 285.992 50.6185C268.322 46.5135 216.903 46.5135 213.21 54.7847C209.632 62.7951 216.321 69.7365 225.482 77.7987C241.253 91.6794 264.351 108.882 254.994 140.584C252.558 148.837 243.816 115.63 227.056 89.7398C214.85 70.8849 191.203 61.8271 185.987 65.6112C174.308 74.0847 190.199 84.41 187.332 87.2641C184.632 89.9517 183.382 85.1012 181.155 87.8157Z" fill="#000000" fill-rule="nonzero" opacity="1" stroke="#000000" stroke-linecap="butt" stroke-linejoin="round" stroke-width="1" vectornator:layerName="曲线 1"/>
<path d="M243.494 78.8612C243.494 78.8612 247.462 79.8616 248.752 77.7108C250.043 75.5599 247.025 67.5304 249.94 67.775C253.925 68.1094 272.329 74.5671 274.613 121.638C274.803 125.557 284.585 135.923 289.457 133.694C294.929 131.191 290.065 108.118 295.295 103.049C298.995 99.4625 302.635 98.0177 306.436 100.538C310.828 103.449 309.344 109.579 303.247 117.907C291.263 134.277 286.685 146.753 275.359 163.763C246.469 207.151 274.129 295.173 296.093 335.575C307.003 355.643 286.76 361.263 270.553 368.413C254.346 375.563 243.495 377.895 242.503 390.399C241.974 397.054 261.591 404.721 251.03 409.023C243.952 411.907 221.979 402.165 223.179 418.187C224.017 429.382 239.494 424.475 240.541 427.53C241.171 429.366 241.973 430.619 242.403 430.407C242.914 430.155 244.866 426.969 241.767 424.378C238.668 421.786 232.932 418.502 236.309 414.651C239.84 410.624 264.399 421.709 268.02 416.174C273.667 407.541 245.434 396.327 254.551 386.136C268.058 371.038 284.178 372.382 296.624 373.995C311.145 375.877 329.633 374.125 316.193 343.694C302.879 313.547 261.924 238.421 272.589 189.783C279.707 157.322 300.614 127.621 315.408 119.484C334.252 109.119 328.163 79.9436 303.958 88.3242C281.129 96.2284 295.531 116.572 284.386 117.521C273.24 118.469 279.339 61.9198 243.95 59.3504C230.619 58.3825 245.32 74.9566 245.418 75.0997C245.509 75.2317 246.659 77.3839 243.494 78.8612Z" fill="#000000" fill-rule="nonzero" opacity="1" stroke="#000000" stroke-linecap="butt" stroke-linejoin="round" stroke-width="1" vectornator:layerName="曲线 2"/>
</g>
<g opacity="1" vectornator:layerName="成组 1">
<path d="M172.845 87.8157C172.845 87.8157 166.444 98.3242 159.936 94.4945C153.066 90.4518 162.114 80.175 159.152 76.1488C156.466 72.4996 128.312 79.677 116.781 127.763C103.966 181.202 81.6689 154.469 88.4355 126.642C96.9922 91.4536 134.232 68.5457 123.62 60.0017C113.009 51.4576 67.6708 50.6308 71.6672 65.9274C75.6636 81.224 78.7519 83.4343 78.256 96.8214C77.7602 110.209 79.8963 388.84 77.6461 402.4C73.2521 428.878 46.9292 436.704 60.4858 441.12C67.8881 443.532 85.7514 435.751 105.332 435.184C118.627 434.8 131.309 438.911 141.199 438.952C156.622 439.016 138.872 427.039 137.755 419.907C136.19 409.908 164.601 398.757 170.652 405.965C177.241 413.815 170.007 418.924 171.071 420.631C172.252 422.525 174.876 420.994 174.928 422.632C174.974 424.092 169.854 425.396 167.174 422.243C163.161 417.523 165.483 409.761 152.949 410.885C146.157 411.495 134.528 417.005 150.904 427.722C175.295 443.684 160.938 456.7 135.179 446.569C112.415 437.617 75.0572 440.152 60.5829 448.376C54.9128 451.598 41.558 454.058 36.8321 449.812C32.0184 445.487 37.4696 428.908 51.8295 418.553C63.2178 410.34 72.2342 401.38 73.2612 392.417C74.4893 381.699 78.1724 104.828 73.1654 89.9826C69.4568 78.9863 51.4428 75.176 46.0406 69.0335C42.7004 65.2355 49.6555 54.8821 68.008 50.6185C85.6778 46.5135 137.097 46.5135 140.79 54.7847C144.368 62.7951 137.679 69.7365 128.518 77.7987C112.747 91.6794 89.6491 108.882 99.006 140.584C101.442 148.837 110.184 115.63 126.944 89.7398C139.15 70.8849 162.797 61.8271 168.013 65.6112C179.692 74.0847 163.801 84.41 166.668 87.2641C169.368 89.9517 170.618 85.1012 172.845 87.8157Z" fill="#000000" fill-rule="nonzero" opacity="1" stroke="#000000" stroke-linecap="butt" stroke-linejoin="round" stroke-width="1" vectornator:layerName="曲线 1"/>
<path d="M110.506 78.8612C110.506 78.8612 106.538 79.8616 105.248 77.7108C103.957 75.5599 106.975 67.5304 104.06 67.775C100.075 68.1094 81.6707 74.5671 79.3867 121.638C79.1966 125.557 69.4155 135.923 64.5432 133.694C59.0714 131.191 63.9348 108.118 58.7046 103.049C55.0046 99.4625 51.3655 98.0177 47.5636 100.538C43.1717 103.449 44.6562 109.579 50.7533 117.907C62.7368 134.277 67.3147 146.753 78.6413 163.763C107.531 207.151 79.871 295.173 57.907 335.575C46.9968 355.643 67.2405 361.263 83.4471 368.413C99.6537 375.563 110.505 377.895 111.497 390.399C112.026 397.054 92.4091 404.721 102.97 409.023C110.048 411.907 132.021 402.165 130.821 418.187C129.983 429.382 114.506 424.475 113.459 427.53C112.829 429.366 112.027 430.619 111.597 430.407C111.086 430.155 109.134 426.969 112.233 424.378C115.332 421.786 121.068 418.502 117.691 414.651C114.16 410.624 89.6008 421.709 85.9802 416.174C80.3332 407.541 108.566 396.327 99.4485 386.136C85.9415 371.038 69.8218 372.382 57.3762 373.995C42.8552 375.877 24.3669 374.125 37.8067 343.694C51.1213 313.547 92.0763 238.421 81.4112 189.783C74.2933 157.322 53.3863 127.621 38.5924 119.484C19.748 109.119 25.8368 79.9436 50.0417 88.3242C72.8707 96.2284 58.4686 116.572 69.6145 117.521C80.7604 118.469 74.6614 61.9198 110.05 59.3504C123.381 58.3825 108.68 74.9566 108.582 75.0997C108.491 75.2317 107.341 77.3839 110.506 78.8612Z" fill="#000000" fill-rule="nonzero" opacity="1" stroke="#000000" stroke-linecap="butt" stroke-linejoin="round" stroke-width="1" vectornator:layerName="曲线 2"/>
</g>
</g>
</svg>
